<?xml version="1.0" encoding="UTF-8"?>
<svg width="24" height="24" viewBox="0 0 24 24" fill="none" xmlns="http://www.w3.org/2000/svg">
  <defs>
    <mask id="mask-hrv" maskUnits="userSpaceOnUse" x="0" y="0" width="24" height="24">
      <rect x="0" y="0" width="24" height="24" fill="#000"/>
      <path d="M12 18.9 6.7 13.88c-1.55-1.47-1.55-3.87 0-5.34 1.34-1.27 3.53-1.27 4.88 0L12 8.95l.42-.41c1.35-1.27 3.54-1.27 4.88 0 1.55 1.47 1.55 3.87 0 5.34L12 18.9Z" fill="#fff"/>
      <rect x="8.1" y="14.4" width="7.8" height="1.4" rx="0.7" fill="#000"/>
      <rect x="8.5" y="12.5" width="1.4" height="2.9" rx="0.7" fill="#000"/>
      <rect x="11.3" y="11.6" width="1.4" height="3.8" rx="0.7" fill="#000"/>
      <rect x="14.1" y="13.1" width="1.4" height="2.3" rx="0.7" fill="#000"/>
    </mask>
  </defs>
  <rect x="0" y="0" width="24" height="24" fill="#F5F7FA" mask="url(#mask-hrv)"/>
</svg>
